# xmcd
#
# Track frame offsets:
#	150
#	10912
#	26960
#	36677
#	47115
#	59942
#	71117
#	81307
#	93870
#	106112
#	116247
#	128780
#	141772
#	158217
#	173502
#	187902
#	200340
#	213907
#	227245
#	241247
#
# Disc length: 3365 seconds
#
# Revision: 2
# Processed by: cddbd v1.5.1PL0 Copyright (c) Steve Scherf et al.
# Submitted via: audiograbber 1.83.01
#
DISCID=220d2314
DTITLE=Willie Nelson and Webb Pierce/Willie Nelson and Hank Snow - In the Jailhouse
DTITLE=Now/Brand on My Heart
DYEAR=1982
DGENRE=Country
TTITLE0=There Stands the Glass
TTITLE1=Wondering
TTITLE2=In the Jailhouse Now
TTITLE3=You're Not Mine Anymore
TTITLE4=Heebie Jeebie Blues No. 2
TTITLE5=Slowly
TTITLE6=I Don't Care
TTITLE7=Back Street Affair
TTITLE8=Let Me Be the First To Know
TTITLE9=More and More
TTITLE10=Golden Rocket
TTITLE11=I've Been Everywhere
TTITLE12=I Almost Lost My Mind
TTITLE13=Caribbean
TTITLE14=Brand on My Heart
TTITLE15=I'm Movin' On
TTITLE16=Send Me the Pillow You Dream On
TTITLE17=I Don't Hurt Anymore
TTITLE18=A Fool Such As I
TTITLE19=It Makes No Difference Now
EXTD=Tracks 1-10 => Nelson and Webb, 1982\nTracks 11-20 =>Nelson and Snow, 1985
EXTT0=
EXTT1=
EXTT2=
EXTT3=
EXTT4=
EXTT5=
EXTT6=
EXTT7=
EXTT8=
EXTT9=
EXTT10=
EXTT11=
EXTT12=
EXTT13=
EXTT14=
EXTT15=
EXTT16=
EXTT17=
EXTT18=
EXTT19=
PLAYORDER=
